<svg id="svg" xmlns="http://www.w3.org/2000/svg" xmlns:xlink="http://www.w3.org/1999/xlink" width="400" height="400" viewBox="0, 0, 400,400"><g id="svgg"><path id="path0" d="M189.130 0.255 C 188.054 0.346,184.728 0.627,181.739 0.881 C 77.722 9.686,-2.843 100.249,0.156 205.000 C 3.010 304.692,76.582 385.892,175.435 398.452 C 264.964 409.827,352.353 358.253,385.680 274.370 C 434.754 150.855,353.178 15.625,220.821 1.082 C 214.958 0.437,193.567 -0.121,189.130 0.255 M132.373 65.014 C 146.537 68.703,153.895 84.518,147.607 97.758 C 139.254 115.348,113.912 115.263,105.425 97.616 C 96.962 80.022,113.443 60.083,132.373 65.014 M149.892 209.457 L 150.002 296.957 125.001 296.957 L 100.000 296.957 100.000 209.344 L 100.000 121.732 124.891 121.844 L 149.783 121.957 149.892 209.457 M224.783 130.047 C 224.783 139.563,224.354 139.015,229.238 135.738 C 249.522 122.125,278.039 118.120,294.810 126.531 C 310.897 134.598,319.767 148.507,323.781 171.957 C 324.453 175.888,324.538 182.086,324.667 236.630 L 324.809 296.957 300.013 296.957 L 275.217 296.957 275.214 242.283 C 275.212 208.249,275.044 186.159,274.770 183.769 C 273.579 173.374,268.991 168.465,259.490 167.418 C 245.175 165.842,232.897 172.066,227.032 183.872 L 225.000 187.962 224.886 242.459 L 224.773 296.957 199.995 296.957 L 175.217 296.957 175.217 209.348 L 175.217 121.739 200.000 121.739 L 224.783 121.739 224.783 130.047 " stroke="current" fill="current" fill-rule="evenodd"></path></g></svg>