<svg id="svg" xmlns="http://www.w3.org/2000/svg" xmlns:xlink="http://www.w3.org/1999/xlink" viewBox="0, 0, 400,406.6666666666667"><g id="svgg"><path id="path0" d="M178.000 12.057 C 16.880 29.815,-49.872 229.612,67.878 341.667 C 173.881 442.543,349.110 390.802,384.651 248.131 C 416.683 119.542,309.873 -2.477,178.000 12.057 M227.333 43.429 C 383.021 70.509,407.915 283.871,263.273 351.463 C 245.474 359.780,246.667 360.736,246.667 338.153 C 246.667 315.532,244.727 307.612,237.268 299.771 C 231.767 293.988,231.898 293.335,238.556 293.330 C 255.274 293.318,282.129 281.808,294.810 269.218 C 321.424 242.796,325.421 187.479,302.788 158.803 L 298.997 154.000 301.035 144.000 C 304.450 127.240,299.791 104.000,293.015 104.000 C 284.323 104.000,258.737 114.261,249.622 121.402 C 247.198 123.301,245.701 123.534,242.288 122.544 C 220.958 116.358,166.429 116.888,155.918 123.384 C 155.284 123.776,152.248 122.507,149.171 120.564 C 130.449 108.745,106.679 101.199,103.193 105.967 C 98.217 112.772,96.068 134.540,99.185 146.558 L 101.037 153.698 96.646 159.451 C 74.178 188.886,78.893 245.111,105.952 270.423 C 119.081 282.705,145.121 293.333,162.083 293.333 C 167.736 293.333,167.741 293.654,162.201 300.127 C 155.106 308.416,153.333 316.050,153.333 338.320 L 153.333 357.667 149.341 356.868 C 127.087 352.417,83.942 319.768,67.022 294.574 C -13.493 174.689,85.986 18.843,227.333 43.429 " stroke="current" fill="current" fill-rule="evenodd"></path></g></svg>