<?xml version="1.0" encoding="UTF-8" standalone="no"?>
<svg version="1.1" xmlns="http://www.w3.org/2000/svg" xmlns:xlink="http://www.w3.org/1999/xlink" preserveAspectRatio="xMidYMid meet" viewBox="0 0 640 640"><defs><path d="M158.67 30.66C92.13 38.44 40.42 88.27 29.88 154.75C28.45 163.83 28.16 486.75 29.58 497.54C38.21 563.08 88.5 613.75 154.75 623.63C165.71 625.27 474.56 625.3 485.85 623.66C556.46 613.45 607.74 557.46 612.1 485.81C612.89 472.72 612.9 182.65 612.11 169.15C607.96 98.81 560.31 45.27 489.75 31.67C489.29 31.59 486.99 31.14 482.85 30.35C386.94 30.28 333.66 30.25 323 30.24C234.79 30.18 161.14 30.37 158.67 30.66M457.97 76.79C513.18 83.46 554.94 123.63 565.79 180.48C566.99 186.76 567.7 455.56 566.55 467.16C561.01 522.91 519.91 566.98 463.96 577.16C463.46 577.25 460.96 577.7 456.46 578.52L320.3 578.52L184.14 578.52C179.79 577.72 177.37 577.28 176.89 577.19C124.32 567.58 85.17 528.74 75.45 476.55C75.34 475.95 74.78 472.95 73.78 467.55C73.67 386.04 73.61 340.75 73.6 331.7C73.4 188.1 73.39 188.9 76.2 174.85C86.56 123.2 130.16 82.92 182.31 76.83C188.71 76.08 451.8 76.04 457.97 76.79M464.73 128.65C433.61 136.69 420.58 172.16 439.13 198.33C455.4 221.31 491.52 222.82 509.18 201.27C536.79 167.57 506.37 117.88 464.73 128.65M306.2 178.8C234.71 186.69 180.95 239.32 172.11 310.09C162.57 386.38 215.8 459.37 291.51 473.83C303.64 476.15 307.21 476.48 320.3 476.47C430.28 476.41 502.4 362.11 454.99 263.02C428.06 206.73 366.88 172.1 306.2 178.8M333.37 215.69C411.01 225.11 454.54 312.36 416.45 382.22C373.37 461.25 260.83 458.23 221.63 376.98C183.19 297.29 246.97 205.21 333.37 215.69" id="a1B5eLt5gm"></path><path d="M20.09 320L20.09 640L320 640L619.91 640L619.91 320L619.91 0L320 0L20.09 0L20.09 320M489.75 31.67C560.31 45.27 607.96 98.81 612.11 169.15C612.9 182.65 612.89 472.72 612.1 485.81C607.74 557.46 556.46 613.45 485.85 623.66C474.56 625.3 165.71 625.27 154.75 623.63C88.5 613.75 38.21 563.08 29.58 497.54C28.16 486.75 28.45 163.83 29.88 154.75C40.42 88.27 92.13 38.44 158.67 30.66C161.14 30.37 234.79 30.18 323 30.24C333.66 30.25 386.94 30.28 482.85 30.35L489.75 31.67M182.31 76.83C130.16 82.92 86.56 123.2 76.2 174.85C73.39 188.9 73.4 188.1 73.6 331.7C73.61 340.75 73.67 386.04 73.78 467.55C74.78 472.95 75.34 475.95 75.45 476.55C85.17 528.74 124.32 567.58 176.89 577.19C177.37 577.28 179.79 577.72 184.14 578.52L320.3 578.52L456.46 578.52C460.96 577.7 463.46 577.25 463.96 577.16C519.91 566.98 561.01 522.91 566.55 467.16C567.7 455.56 566.99 186.76 565.79 180.48C554.94 123.63 513.18 83.46 457.97 76.79C451.8 76.04 188.71 76.08 182.31 76.83M485.67 128.6C536.88 141.59 528.09 216.17 475.35 216.19C454.68 216.2 438.82 204.87 432.69 185.72C422.14 152.75 452.38 120.15 485.67 128.6M333.67 178.76C387.9 184.5 432.11 215.2 454.99 263.02C497.29 351.44 445.13 454.53 348.19 474.1C335.93 476.58 312.95 477.39 302.31 475.73C225.62 463.76 173.34 405.98 171.42 331.09C169.15 242 246.34 169.52 333.67 178.76M309.2 215.39C278.1 219.43 252.99 233.43 234.5 257.04C181.22 325.09 221.13 427.21 305.6 438.98C386.76 450.29 451.12 369.43 424.17 290.01C407.73 241.55 357.71 209.08 309.2 215.39" id="dPQSddqJL"></path></defs><g><g><g><use xlink:href="#a1B5eLt5gm" opacity="1" fill="current" fill-opacity="1"></use><g><use xlink:href="#a1B5eLt5gm" opacity="1" fill-opacity="0" stroke="current" stroke-width="1" stroke-opacity="0"></use></g></g><g><use xlink:href="#dPQSddqJL" opacity="1" fill="#f3f3f3" fill-opacity="0"></use><g><use xlink:href="#dPQSddqJL" opacity="1" fill-opacity="0" stroke="#000000" stroke-width="1" stroke-opacity="0"></use></g></g></g></g></svg>